<?xml version="1.0" encoding="UTF-8"?>
<!DOCTYPE svg PUBLIC "-//W3C//DTD SVG 1.1//EN" "http://www.w3.org/Graphics/SVG/1.1/DTD/svg11.dtd">
<!-- Creator: CorelDRAW X8 -->
<svg xmlns="http://www.w3.org/2000/svg" xml:space="preserve" width="199px" height="141px" version="1.1" style="shape-rendering:geometricPrecision; text-rendering:geometricPrecision; image-rendering:optimizeQuality; fill-rule:evenodd; clip-rule:evenodd"
viewBox="0 0 1990000 1407071"
 xmlns:xlink="http://www.w3.org/1999/xlink">
 <defs>
  <style type="text/css">
   <![CDATA[
    .fil0 {fill:#3681F4}
   ]]>
  </style>
 </defs>
 <g id="Capa_x0020_1">
  <metadata id="CorelCorpID_0Corel-Layer"/>
  <path class="fil0" d="M229876 580685c-32557,7226 -35602,-5728 -41818,-38559 -8315,-43914 -4089,-66428 46572,-63285 68068,4223 97371,71312 10862,97622 -5211,1584 -10341,2898 -15616,4222zm1226069 -6496c41785,-18303 98886,37718 47454,73665 -12780,8932 -42409,17072 -50688,759 -9094,-17921 -13903,-60202 3234,-74424zm-1264681 185253c-8623,-64077 -3625,-58906 56904,-63811 64667,-5240 115045,-9497 167441,-53890 66671,-56485 71733,-149785 18606,-218030 -67699,-86966 -271050,-89574 -368674,-62368 -27178,7574 -23713,15318 -23697,43580 65,117963 7568,237915 9527,356633 1484,89909 2524,179796 4786,269694 1601,62575 9406,63189 71942,59273 21100,-1322 93658,-4120 99229,-30161 3978,-18592 -30120,-257070 -35613,-297561l-451 -3359zm139194 -26568c-29298,56519 -8376,241512 1552,308650 4720,31368 15904,26752 47862,27584 75977,1978 149794,-947 225572,-2226 54626,-858 59042,-2875 60116,-61326 228,-12494 2915,-55422 -13676,-59058 -35921,-4043 -208628,19475 -216366,13562 -21010,-16055 16400,-253914 -8059,-262035 -19092,-6339 -79965,14481 -94013,30771l-2988 4078zm1464469 36846c-77158,541 -70902,-94595 -1951,-96672 62487,-1881 70792,86437 1951,96672zm119172 -136986c-73056,-92151 -207783,-91111 -260839,23074 -63489,145651 70424,273834 214574,181211 55439,-35622 90230,-93146 70040,-159683 -5739,-16822 -13550,-30191 -23775,-44602zm-570590 422351c10273,-3161 5397,-16692 3809,-27213 -9475,-62717 -27272,-64019 -86356,-49393 -10169,2518 -68305,21249 -75000,11949 -5533,-7684 -16112,-100722 -4650,-110198 12245,-10124 79488,1548 105562,-5851 7584,-2153 6570,-1576 9122,-11790 4336,-17360 7343,-52351 -13993,-59585 -28038,-9507 -83916,6153 -94372,-21760 -4947,-13207 -6866,-70846 1430,-78775 6525,-6234 93687,-7869 112946,-11568 19450,-3735 18098,-1686 21916,-21283 11872,-60947 -6971,-53893 -55969,-54109 -14094,-62 -147506,677 -148658,12700 -4631,48327 -28748,416467 -24761,432223 3131,12374 32840,10429 42594,10597 53051,914 154894,-4787 206380,-15944zm-139686 -486305c7093,-2762 5609,-3178 7293,-13738 2468,-15484 -346,-92392 -8458,-102112 -8107,-9715 -48618,-4427 -62085,-3881 -88380,3526 -181561,4053 -269189,10603 -48589,4714 -36832,15606 -35785,60216 1967,83783 -3455,53164 81663,61319 43115,4130 34911,23302 33651,61801 -1717,52432 -19733,304701 -10903,333912 7787,25765 40017,19218 61737,17594 60691,-4807 54509,-17653 52404,-72393 -1393,-44037 -13589,-326067 -2781,-338547 10024,-11574 120261,-4691 152453,-14774zm-524553 73678c28004,-37804 55945,27237 45442,52073 -13180,31170 -77827,14097 -45442,-52073zm-85670 -36295c-25476,82323 -42725,163405 -70586,245771 -7284,21538 -11727,34078 -10122,57221 16447,6239 81869,18044 91590,-441 13008,-24738 13851,-104040 42720,-111418 18994,-3587 75841,-3847 84577,17223 15038,36272 22584,201045 46368,210852 11029,4547 106703,-2765 113942,-14391 8338,-13391 -39400,-211344 -46216,-240705 -18064,-77816 -37989,-158286 -59852,-235086 -11691,-41062 -15490,-38783 -58703,-40737 -21334,-965 -67882,-3910 -85561,9192 -25629,18995 -39129,72577 -48157,102519zm948471 296874c65102,99514 147852,153252 270037,138634 52104,-6234 104461,-26177 143608,-61719 -4036,-16251 -44539,-96610 -59090,-97983 -10487,-988 -61419,31156 -80482,36868 -62205,18639 -130333,-8375 -174857,-52879 -30840,-30827 -75132,-98146 -79490,-142455 56280,-39464 83034,-99944 52783,-165370 -37007,-80037 -157729,-81369 -231091,-64096 -33474,7883 -28020,21286 -28258,54043 -228,44941 1989,389548 10665,400464 8303,10446 93066,10152 101352,-5539 11363,-21520 -24903,-164861 -6392,-177073 17942,-11837 28242,26143 33158,38076 16492,40033 23961,61436 48057,99029z"/>
 </g>
</svg>
